<svg id="SvgjsSvg1023" xmlns="http://www.w3.org/2000/svg" version="1.1" xmlns:xlink="http://www.w3.org/1999/xlink" xmlns:svgjs="http://svgjs.com/svgjs" width="17" height="15"><defs id="SvgjsDefs1024"></defs><path id="SvgjsPath1025" d="M112.6 1650C114 1650 114.89999999999999 1649.2 114.89999999999999 1647.8C114.89999999999999 1645.8999999999999 114.39999999999999 1643 111.99999999999999 1643C111.69999999999999 1643 110.69999999999999 1644.2 108.99999999999999 1644.2C107.29999999999998 1644.2 106.29999999999998 1643 105.99999999999999 1643C103.59999999999998 1643 103.09999999999998 1645.9 103.19999999999999 1647.8C103.19999999999999 1649.2 104.1 1650 105.39999999999999 1650ZM109 1643.6C110.8 1643.6 112.2 1642.1 112.2 1640.3C112.2 1638.5 110.8 1637.1 109 1637.1C107.2 1637.1 105.8 1638.6 105.8 1640.3999999999999C105.8 1642.1999999999998 107.2 1643.6 109 1643.6ZM103.7 1643.6C104.3 1642.8999999999999 105.10000000000001 1642.5 106 1642.5C105.5 1641.9 105.3 1641.2 105.3 1640.4C105.3 1640.2 105.3 1640 105.3 1639.8000000000002C105 1639.9 104.6 1640.0000000000002 104.2 1639.9C103 1639.9 102.2 1639.2 102 1639.2C101 1639.2 101 1641.5 101 1642.2C101 1643.2 101.8 1643.6000000000001 102.6 1643.6000000000001ZM104.2 1639.3C105.4 1639.3 106.3 1638.2 106.3 1637.1C106.3 1636 105.39999999999999 1635 104.2 1635C103 1635 102.10000000000001 1636.1 102.10000000000001 1637.2C102.10000000000001 1638.3 103.00000000000001 1639.3 104.2 1639.3ZM113.8 1639.3C115 1639.3 115.89999999999999 1638.3 115.89999999999999 1637.2C115.89999999999999 1636.1000000000001 114.89999999999999 1635.1000000000001 113.8 1635.1000000000001C112.7 1635.1000000000001 111.7 1636.1000000000001 111.7 1637.2C111.7 1638.3 112.60000000000001 1639.3 113.8 1639.3ZM114.3 1643.6C113.7 1642.8999999999999 113 1642.6 112.1 1642.5C112.5 1641.9 112.8 1641.1 112.8 1640.4C112.8 1640.2 112.8 1640 112.8 1639.8000000000002C113 1639.9 113.39999999999999 1640.0000000000002 113.8 1640.0000000000002C114.89999999999999 1640.0000000000002 115.8 1639.3000000000002 116 1639.3000000000002C117.1 1639.3000000000002 117 1641.6000000000001 117 1642.3000000000002C117 1643.2000000000003 116.2 1643.6000000000001 115.4 1643.6000000000001Z " fill="#ffffff" fill-opacity="1" transform="matrix(1,0,0,1,-101,-1635)"></path></svg>