<svg id="SvgjsSvg1032" xmlns="http://www.w3.org/2000/svg" version="1.1" xmlns:xlink="http://www.w3.org/1999/xlink" xmlns:svgjs="http://svgjs.com/svgjs" width="16" height="16"><defs id="SvgjsDefs1033"></defs><path id="SvgjsPath1034" d="M878.4 1647.2L871.6 1650.9C871.4 1651 871.2 1651 871 1651C870.8 1651 870.6 1651 870.4 1650.8L863.6 1647.1C863.3000000000001 1646.8999999999999 863 1646.5 863 1646.1L863 1638.6999999999998C863 1638.1999999999998 863.3 1637.6999999999998 863.8 1637.4999999999998L870.5999999999999 1634.9999999999998C870.6999999999999 1634.9999999999998 870.8999999999999 1634.9999999999998 870.9999999999999 1634.9999999999998C871.0999999999999 1634.9999999999998 871.2999999999998 1634.9999999999998 871.3999999999999 1635.0999999999997L878.1999999999998 1637.5999999999997C878.6999999999998 1637.6999999999996 878.9999999999998 1638.1999999999996 878.9999999999998 1638.6999999999996L878.9999999999998 1646.0999999999997C878.9999999999998 1646.5999999999997 878.6999999999998 1646.9999999999998 878.3999999999997 1647.1999999999996ZM871 1636.2L864.3 1638.7L871 1641.1000000000001L877.7 1638.7ZM877.8 1640L871.5999999999999 1642.2L871.5999999999999 1649.4L877.8 1646.1000000000001Z " fill="#ffffff" fill-opacity="1" transform="matrix(1,0,0,1,-863,-1635)"></path></svg>