<svg id="SvgjsSvg1000" xmlns="http://www.w3.org/2000/svg" version="1.1" xmlns:xlink="http://www.w3.org/1999/xlink" xmlns:svgjs="http://svgjs.com/svgjs" width="14" height="11"><defs id="SvgjsDefs1001"></defs><path id="SvgjsPath1007" d="M38.56 596.77C38.56 596.6999999999999 38.580000000000005 596.64 38.63 596.59L40.21 595.07C40.26 595.0200000000001 40.32 595 40.39 595L41.67 595L41.67 597L38.56 597ZM41.67 601C41.67 601.27 41.56 601.51 41.36 601.7C41.15 601.9000000000001 40.91 602 40.63 602C40.35 602 40.11 601.9 39.900000000000006 601.7C39.7 601.51 39.59 601.2700000000001 39.59 601C39.59 600.73 39.7 600.49 39.900000000000006 600.3C40.11000000000001 600.0999999999999 40.35000000000001 600 40.63 600C40.910000000000004 600 41.150000000000006 600.1 41.36 600.3C41.56 600.49 41.67 600.7299999999999 41.67 601ZM48.93 601C48.93 601.27 48.82 601.51 48.62 601.7C48.41 601.9000000000001 48.169999999999995 602 47.89 602C47.61 602 47.36 601.9 47.160000000000004 601.7C46.95 601.51 46.85 601.2700000000001 46.85 601C46.85 600.73 46.95 600.49 47.160000000000004 600.3C47.36000000000001 600.0999999999999 47.61000000000001 600 47.89 600C48.17 600 48.410000000000004 600.1 48.62 600.3C48.82 600.49 48.93 600.7299999999999 48.93 601ZM51 592.5C51 592.36 50.95 592.25 50.85 592.15C50.74 592.05 50.620000000000005 592 50.480000000000004 592L42.190000000000005 592C42.040000000000006 592 41.92 592.05 41.82000000000001 592.15C41.720000000000006 592.25 41.67000000000001 592.36 41.67000000000001 592.5L41.67000000000001 594L40.37000000000001 594C40.22000000000001 594 40.070000000000014 594.03 39.90000000000001 594.1C39.73000000000001 594.1700000000001 39.59000000000001 594.25 39.490000000000016 594.35L37.88000000000002 595.9C37.81000000000002 595.97 37.750000000000014 596.04 37.70000000000002 596.13C37.65000000000002 596.22 37.610000000000014 596.3 37.59000000000002 596.37C37.56000000000002 596.44 37.55000000000002 596.54 37.530000000000015 596.66C37.52000000000002 596.78 37.52000000000002 596.87 37.51000000000001 596.93C37.51000000000001 596.9899999999999 37.51000000000001 597.0899999999999 37.51000000000001 597.2299999999999C37.52000000000001 597.3699999999999 37.52000000000001 597.4599999999999 37.52000000000001 597.4999999999999L37.52000000000001 599.9999999999999C37.38000000000001 599.9999999999999 37.26000000000001 600.0499999999998 37.15000000000001 600.1499999999999C37.05000000000001 600.2499999999999 37.000000000000014 600.3599999999999 37.000000000000014 600.4999999999999C37.000000000000014 600.5799999999999 37.01000000000001 600.6499999999999 37.030000000000015 600.7099999999999C37.05000000000002 600.7699999999999 37.09000000000002 600.8199999999999 37.140000000000015 600.8499999999999C37.19000000000001 600.8899999999999 37.240000000000016 600.92 37.280000000000015 600.9399999999999C37.31000000000002 600.9599999999999 37.38000000000002 600.9799999999999 37.47000000000001 600.9899999999999C37.55000000000001 600.9999999999999 37.62000000000001 600.9999999999999 37.65000000000001 600.9999999999999C37.680000000000014 601.0099999999999 37.750000000000014 601.0099999999999 37.850000000000016 600.9999999999999C37.960000000000015 600.9999999999999 38.54000000000001 600.9999999999999 38.56000000000002 600.9999999999999C38.56000000000002 601.5499999999998 38.76000000000002 602.0199999999999 39.16000000000002 602.4099999999999C39.570000000000014 602.7999999999998 40.06000000000002 602.9999999999999 40.63000000000002 602.9999999999999C41.20000000000002 602.9999999999999 41.69000000000002 602.7999999999998 42.100000000000016 602.4099999999999C42.500000000000014 602.0199999999999 42.70000000000002 601.5499999999998 42.70000000000002 600.9999999999999L45.81000000000002 600.9999999999999C45.81000000000002 601.5499999999998 46.02000000000002 602.0199999999999 46.420000000000016 602.4099999999999C46.83000000000001 602.7999999999998 47.320000000000014 602.9999999999999 47.890000000000015 602.9999999999999C48.460000000000015 602.9999999999999 48.95000000000002 602.7999999999998 49.360000000000014 602.4099999999999C49.76000000000001 602.0199999999999 49.960000000000015 601.5499999999998 49.960000000000015 600.9999999999999C49.98000000000002 600.9999999999999 50.04000000000001 600.9999999999999 50.15000000000001 600.9999999999999C50.250000000000014 601.0099999999999 50.320000000000014 601.0099999999999 50.350000000000016 600.9999999999999C50.38000000000002 600.9999999999999 50.45000000000002 600.9999999999999 50.530000000000015 600.9899999999999C50.62000000000002 600.9799999999999 50.69000000000001 600.9599999999999 50.72000000000001 600.9399999999999C50.76000000000001 600.92 50.81000000000002 600.89 50.860000000000014 600.8499999999999C50.91000000000001 600.8199999999999 50.95000000000002 600.7699999999999 50.97000000000001 600.7099999999999C50.990000000000016 600.65 51.000000000000014 600.5799999999999 51.000000000000014 600.4999999999999Z " fill="#333333" fill-opacity="1" transform="matrix(1,0,0,1,-37,-592)"></path></svg>