<svg id="SvgjsSvg1017" xmlns="http://www.w3.org/2000/svg" version="1.1" xmlns:xlink="http://www.w3.org/1999/xlink" xmlns:svgjs="http://svgjs.com/svgjs" width="16" height="14"><defs id="SvgjsDefs1018"></defs><path id="SvgjsPath1019" d="M929 97C929 97.3 928.8 97.6 928.5 97.6L918.5 98.8C918.5 99 918.6 99.3 918.6 99.5C918.6 99.7 918.4 100 918.3000000000001 100.2L927.1 100.2C927.4 100.2 927.7 100.5 927.7 100.8C927.7 101.1 927.4000000000001 101.39999999999999 927.1 101.39999999999999L917.3000000000001 101.39999999999999C917.0000000000001 101.39999999999999 916.7 101.1 916.7 100.8C916.7 100.5 917.2 99.7 917.3000000000001 99.39999999999999L915.6 91.3L913.6 91.3C913.3000000000001 91.3 913 91 913 90.6C913 90.19999999999999 913.3 90 913.6 90L916.1 90C916.8000000000001 90 916.8000000000001 90.8 916.9 91.3L928.4 91.3C928.6999999999999 91.3 929 91.6 929 91.89999999999999L929 96.99999999999999Z " fill="#333333" fill-opacity="1" transform="matrix(1,0,0,1,-913,-90)"></path><path id="SvgjsPath1020" d="M917 102.5C917 101.67157 917.44772 101 918 101C918.55228 101 919 101.67157 919 102.5C919 103.32843 918.55228 104 918 104C917.44772 104 917 103.32843 917 102.5Z " fill="#333333" fill-opacity="1" transform="matrix(1,0,0,1,-913,-90)"></path><path id="SvgjsPath1021" d="M924.5 93.9C924.3 93.9 924.2 94 924.1 94.10000000000001L922.6 95.60000000000001L922.6 92.60000000000001C922.6 92.30000000000001 922.3000000000001 92.00000000000001 922 92.00000000000001C921.7 92.00000000000001 921.4 92.30000000000001 921.4 92.60000000000001L921.4 95.50000000000001L920 94.10000000000001C919.9 94.00000000000001 919.7 93.9 919.6 93.9C919.3000000000001 93.9 919 94.2 919 94.5C919 94.7 919.1 94.8 919.2 94.9L921.7 97.4C921.8000000000001 97.5 922 97.60000000000001 922.1 97.60000000000001C922.3000000000001 97.60000000000001 922.4 97.50000000000001 922.5 97.4L925 94.9C925.1 94.80000000000001 925.2 94.60000000000001 925.2 94.5C925.1 94.2 924.8000000000001 93.9 924.5 93.9Z " fill="#333333" fill-opacity="1" transform="matrix(1,0,0,1,-913,-90)"></path><path id="SvgjsPath1022" d="M925 102.5C925 101.67157 925.44772 101 926 101C926.55228 101 927 101.67157 927 102.5C927 103.32843 926.55228 104 926 104C925.44772 104 925 103.32843 925 102.5Z " fill="#333333" fill-opacity="1" transform="matrix(1,0,0,1,-913,-90)"></path></svg>