<svg id="SvgjsSvg1008" xmlns="http://www.w3.org/2000/svg" version="1.1" xmlns:xlink="http://www.w3.org/1999/xlink" xmlns:svgjs="http://svgjs.com/svgjs" width="16" height="14"><defs id="SvgjsDefs1009"></defs><path id="SvgjsPath1010" d="M230 20C230 20.3 229.8 20.6 229.5 20.6L219.5 21.8C219.5 22 219.6 22.3 219.6 22.5C219.6 22.7 219.4 23 219.29999999999998 23.2L228.1 23.2C228.4 23.2 228.7 23.5 228.7 23.8C228.7 24.1 228.39999999999998 24.400000000000002 228.1 24.400000000000002L218.29999999999998 24.400000000000002C217.99999999999997 24.400000000000002 217.7 24.1 217.7 23.8C217.7 23.5 218.2 22.7 218.29999999999998 22.400000000000002L216.6 14.300000000000002L214.6 14.300000000000002C214.29999999999998 14.300000000000002 214 14.000000000000002 214 13.600000000000003C214 13.200000000000003 214.3 13.000000000000004 214.6 13.000000000000004L217.1 13.000000000000004C217.79999999999998 13.000000000000004 217.79999999999998 13.800000000000004 217.9 14.300000000000004L229.4 14.300000000000004C229.70000000000002 14.300000000000004 230 14.600000000000005 230 14.900000000000004L230 20.000000000000004Z " fill="#ffffff" fill-opacity="1" transform="matrix(1,0,0,1,-214,-13)"></path><path id="SvgjsPath1011" d="M218 25.5C218 24.67157 218.44772 24 219 24C219.55228 24 220 24.67157 220 25.5C220 26.32843 219.55228 27 219 27C218.44772 27 218 26.32843 218 25.5Z " fill="#ffffff" fill-opacity="1" transform="matrix(1,0,0,1,-214,-13)"></path><path id="SvgjsPath1012" d="M225.5 16.9C225.3 16.9 225.2 17 225.1 17.099999999999998L223.6 18.599999999999998L223.6 15.599999999999998C223.6 15.299999999999997 223.29999999999998 14.999999999999998 223 14.999999999999998C222.7 14.999999999999998 222.4 15.299999999999999 222.4 15.599999999999998L222.4 18.499999999999996L221 17.099999999999998C220.9 16.999999999999996 220.7 16.9 220.6 16.9C220.29999999999998 16.9 220 17.2 220 17.5C220 17.7 220.1 17.8 220.2 17.9L222.7 20.4C222.79999999999998 20.5 223 20.599999999999998 223.1 20.599999999999998C223.29999999999998 20.599999999999998 223.4 20.499999999999996 223.5 20.4L226 17.9C226.1 17.799999999999997 226.2 17.599999999999998 226.2 17.5C226.1 17.2 225.79999999999998 16.9 225.5 16.9Z " fill="#ffffff" fill-opacity="1" transform="matrix(1,0,0,1,-214,-13)"></path><path id="SvgjsPath1013" d="M226 25.5C226 24.67157 226.44772 24 227 24C227.55228 24 228 24.67157 228 25.5C228 26.32843 227.55228 27 227 27C226.44772 27 226 26.32843 226 25.5Z " fill="#ffffff" fill-opacity="1" transform="matrix(1,0,0,1,-214,-13)"></path></svg>