<svg id="SvgjsSvg1020" xmlns="http://www.w3.org/2000/svg" version="1.1" xmlns:xlink="http://www.w3.org/1999/xlink" xmlns:svgjs="http://svgjs.com/svgjs" width="16" height="15"><defs id="SvgjsDefs1021"></defs><path id="SvgjsPath1022" d="M294.24 68L299.74 62.49C300.09000000000003 62.15 300.09000000000003 61.6 299.74 61.260000000000005C299.40000000000003 60.910000000000004 298.85 60.910000000000004 298.51 61.260000000000005L293 66.76L287.49 61.260000000000005C287.15000000000003 60.910000000000004 286.6 60.910000000000004 286.26 61.260000000000005C285.90999999999997 61.60000000000001 285.90999999999997 62.150000000000006 286.26 62.49L291.76 68L286.26 73.51C285.90999999999997 73.85000000000001 285.90999999999997 74.4 286.26 74.74000000000001C286.43 74.91000000000001 286.65 75.00000000000001 286.88 75.00000000000001C287.1 75.00000000000001 287.32 74.91000000000001 287.49 74.74000000000001L293 69.24000000000001L298.51 74.74000000000001C298.68 74.91000000000001 298.9 75.00000000000001 299.12 75.00000000000001C299.35 75.00000000000001 299.57 74.91000000000001 299.74 74.74000000000001C300.09000000000003 74.4 300.09000000000003 73.85000000000001 299.74 73.50000000000001Z " fill="#ffffff" fill-opacity="1" transform="matrix(1,0,0,1,-285,-60)"></path></svg>