<svg id="SvgjsSvg1000" xmlns="http://www.w3.org/2000/svg" version="1.1" xmlns:xlink="http://www.w3.org/1999/xlink" xmlns:svgjs="http://svgjs.com/svgjs" width="10" height="10"><defs id="SvgjsDefs1001"></defs><path id="SvgjsPath1007" d="M1161.15 301.37C1161.15 301.57 1161.0800000000002 301.75 1160.94 301.89L1159.89 302.94C1159.75 303.08 1159.5700000000002 303.15 1159.3700000000001 303.15C1159.16 303.15 1158.99 303.08 1158.8400000000001 302.94L1156.5800000000002 300.67L1154.3100000000002 302.94C1154.17 303.08 1153.9900000000002 303.15 1153.7900000000002 303.15C1153.5800000000002 303.15 1153.41 303.08 1153.2600000000002 302.94L1152.2200000000003 301.89C1152.0700000000002 301.75 1152.0000000000002 301.57 1152.0000000000002 301.37C1152.0000000000002 301.16 1152.0700000000002 300.99 1152.2200000000003 300.84000000000003L1154.4800000000002 298.58000000000004L1152.2200000000003 296.31000000000006C1152.0700000000002 296.1700000000001 1152.0000000000002 295.99000000000007 1152.0000000000002 295.7900000000001C1152.0000000000002 295.5800000000001 1152.0700000000002 295.4100000000001 1152.2200000000003 295.2600000000001L1153.2600000000002 294.2200000000001C1153.4100000000003 294.0700000000001 1153.5800000000002 294.00000000000006 1153.7900000000002 294.00000000000006C1153.9900000000002 294.00000000000006 1154.1700000000003 294.07000000000005 1154.3100000000002 294.2200000000001L1156.5800000000002 296.4800000000001L1158.8400000000001 294.2200000000001C1158.9900000000002 294.0700000000001 1159.16 294.00000000000006 1159.3700000000001 294.00000000000006C1159.5700000000002 294.00000000000006 1159.7500000000002 294.07000000000005 1159.89 294.2200000000001L1160.94 295.2600000000001C1161.0800000000002 295.4100000000001 1161.15 295.5800000000001 1161.15 295.7900000000001C1161.15 295.99000000000007 1161.0800000000002 296.1700000000001 1160.94 296.31000000000006L1158.67 298.58000000000004L1160.94 300.84000000000003C1161.0800000000002 300.99 1161.15 301.16 1161.15 301.37Z " fill="#ffffff" fill-opacity="1" transform="matrix(1,0,0,1,-1152,-294)"></path></svg>