<svg id="SvgjsSvg1011" xmlns="http://www.w3.org/2000/svg" version="1.1" xmlns:xlink="http://www.w3.org/1999/xlink" xmlns:svgjs="http://svgjs.com/svgjs" width="14" height="12"><defs id="SvgjsDefs1012"></defs><path id="SvgjsPath1013" d="M927.46 594L924.5400000000001 594L924.5400000000001 600.39C924.5400000000001 600.54 924.6 600.66 924.71 600.74C924.82 600.82 924.95 600.86 925.13 600.86L926.88 600.86C927.05 600.86 927.18 600.82 927.29 600.74C927.4 600.66 927.4599999999999 600.54 927.4599999999999 600.39ZM925.08 592.86L923.9300000000001 591.42C923.7700000000001 591.24 923.5600000000001 591.14 923.3000000000001 591.14C923.0600000000001 591.14 922.85 591.23 922.6800000000001 591.39C922.5100000000001 591.56 922.4300000000001 591.76 922.4300000000001 592C922.4300000000001 592.24 922.5100000000001 592.44 922.6800000000001 592.61C922.85 592.77 923.0600000000001 592.86 923.3000000000001 592.86ZM929.32 591.39C929.1500000000001 591.23 928.94 591.14 928.7 591.14C928.44 591.14 928.23 591.24 928.07 591.42L926.9300000000001 592.86L928.7 592.86C928.94 592.86 929.1500000000001 592.77 929.32 592.61C929.49 592.44 929.57 592.24 929.57 592C929.57 591.76 929.49 591.56 929.32 591.39ZM933 597.14C933 597.23 932.97 597.29 932.92 597.35C932.86 597.4 932.79 597.4300000000001 932.7099999999999 597.4300000000001L931.8299999999999 597.4300000000001L931.8299999999999 601.1400000000001C931.8299999999999 601.3800000000001 931.7499999999999 601.5800000000002 931.5799999999999 601.7500000000001C931.41 601.9200000000001 931.1999999999999 602.0000000000001 930.9599999999999 602.0000000000001L921.04 602.0000000000001C920.8 602.0000000000001 920.5899999999999 601.9200000000001 920.42 601.7500000000001C920.25 601.5800000000002 920.17 601.3800000000001 920.17 601.1400000000001L920.17 597.4300000000001L919.29 597.4300000000001C919.2099999999999 597.4300000000001 919.14 597.4000000000001 919.0799999999999 597.35C919.03 597.2900000000001 918.9999999999999 597.23 918.9999999999999 597.14L918.9999999999999 594.29C918.9999999999999 594.1999999999999 919.0299999999999 594.13 919.0799999999999 594.0799999999999C919.1399999999999 594.03 919.2099999999999 593.9999999999999 919.29 593.9999999999999L923.3 593.9999999999999C922.74 593.9999999999999 922.26 593.8099999999998 921.8599999999999 593.4199999999998C921.4599999999999 593.0299999999999 921.2599999999999 592.5499999999998 921.2599999999999 591.9999999999999C921.2599999999999 591.4499999999999 921.4599999999999 590.9699999999999 921.8599999999999 590.5799999999999C922.2599999999999 590.1899999999999 922.7399999999999 589.9999999999999 923.3 589.9999999999999C923.9499999999999 589.9999999999999 924.4599999999999 590.2299999999999 924.8299999999999 590.6899999999999L925.9999999999999 592.16L927.1699999999998 590.6899999999999C927.5399999999998 590.2299999999999 928.0499999999998 589.9999999999999 928.6999999999998 589.9999999999999C929.2599999999998 589.9999999999999 929.7399999999998 590.1899999999999 930.1399999999999 590.5799999999999C930.5399999999998 590.9699999999999 930.7399999999999 591.4499999999999 930.7399999999999 591.9999999999999C930.7399999999999 592.5499999999998 930.5399999999998 593.0299999999999 930.1399999999999 593.4199999999998C929.7399999999999 593.8099999999998 929.2599999999999 593.9999999999999 928.6999999999998 593.9999999999999L932.7099999999998 593.9999999999999C932.7899999999998 593.9999999999999 932.8599999999998 594.0299999999999 932.9199999999998 594.0799999999999C932.9699999999998 594.1299999999999 932.9999999999999 594.1999999999999 932.9999999999999 594.29Z " fill="#333333" fill-opacity="1" transform="matrix(1,0,0,1,-919,-590)"></path></svg>