<?xml version="1.0" encoding="utf-8"?>
<!-- Generator: Adobe Illustrator 20.0.0, SVG Export Plug-In . SVG Version: 6.00 Build 0)  -->
<svg version="1.0" id="Layer_1" xmlns="http://www.w3.org/2000/svg" xmlns:xlink="http://www.w3.org/1999/xlink" x="0px" y="0px"
	 viewBox="0 0 16 14" style="enable-background:new 0 0 16 14;" xml:space="preserve">
<style type="text/css">
	.st0{fill-rule:evenodd;clip-rule:evenodd;fill:#FFFFFF;}
	.st1{fill-rule:evenodd;clip-rule:evenodd;fill:#AA66AA;}
</style>
<g><path class="st0" d="M8,14c-0.2,0-0.3-0.1-0.4-0.2L2,8.4C2,8.4,1.9,8.3,1.8,8.2C1.7,8.1,1.5,7.9,1.3,7.6C1.1,7.3,0.9,7,0.7,6.7		C0.5,6.4,0.3,6.1,0.2,5.6S0,4.8,0,4.4c0-1.3,0.4-2.3,1.1-3.1s1.8-1.1,3.1-1.1c0.4,0,0.7,0.1,1.1,0.2c0.4,0.1,0.7,0.3,1.1,0.5		c0.3,0.2,0.6,0.4,0.9,0.6C7.6,1.7,7.8,2,8,2.2C8.2,2,8.4,1.7,8.7,1.6c0.2-0.2,0.5-0.4,0.9-0.6c0.3-0.2,0.7-0.4,1.1-0.5		c0.4-0.1,0.8-0.2,1.1-0.2c1.3,0,2.4,0.4,3.1,1.1C15.6,2.1,16,3.1,16,4.4c0,1.3-0.7,2.7-2,4l-5.6,5.4C8.3,13.9,8.2,14,8,14z"/><path class="st1" d="M11.7,1.4c-1.3,0-2.8,1.5-3.3,2c-0.2,0.3-0.7,0.3-0.9,0c-0.5-0.6-2-2-3.3-2c-1.4,0-3.1,0.5-3.1,3.1		c0,1.7,1.7,3.2,1.7,3.2L8,12.8l5.2-5.1c0,0,1.7-1.6,1.7-3.2C14.9,1.9,13.2,1.4,11.7,1.4z M14,8.6l-5.6,5.5c-0.1,0-0.3,0.1-0.4,0.1		c-0.1,0-0.3-0.1-0.4-0.2L2,8.5c0,0-2-1.8-2-4c0-2.7,1.6-4.3,4.3-4.3c1.6,0,3,1.3,3.7,2c0.7-0.7,2.2-2,3.7-2c2.7,0,4.3,1.6,4.3,4.3		C16,6.7,14,8.5,14,8.6z"/></g>
</svg>
