<svg id="SvgjsSvg1017" xmlns="http://www.w3.org/2000/svg" version="1.1" xmlns:xlink="http://www.w3.org/1999/xlink" xmlns:svgjs="http://svgjs.com/svgjs" width="16" height="14"><defs id="SvgjsDefs1018"></defs><path id="SvgjsPath1019" d="M258.4 26.9C258.29999999999995 26.9 258.09999999999997 27 258 27C257.9 27 257.7 26.9 257.6 26.8L252.00000000000003 21.3C252.00000000000003 21.3 250.00000000000003 19.5 250.00000000000003 17.3C250.00000000000003 14.600000000000001 251.60000000000002 13 254.30000000000004 13C255.90000000000003 13 257.30000000000007 14.3 258.00000000000006 15C258.70000000000005 14.3 260.20000000000005 13 261.70000000000005 13C264.40000000000003 13 266.00000000000006 14.6 266.00000000000006 17.3C266.00000000000006 19.5 264.00000000000006 21.3 264.00000000000006 21.4ZM258.4 16.2C258.2 16.5 257.7 16.5 257.5 16.2C257 15.6 255.5 14.2 254.2 14.2C252.79999999999998 14.2 251.1 14.7 251.1 17.3C251.1 19 252.79999999999998 20.5 252.79999999999998 20.5L258 25.6L263.2 20.5C263.2 20.5 264.9 18.9 264.9 17.3C264.9 14.700000000000001 263.2 14.200000000000001 261.7 14.200000000000001C260.4 14.200000000000001 258.9 15.700000000000001 258.4 16.200000000000003Z " fill="#ffffff" fill-opacity="1" transform="matrix(1,0,0,1,-250,-13)"></path></svg>