<svg xmlns="http://www.w3.org/2000/svg" version="1.1" xmlns:xlink="http://www.w3.org/1999/xlink" xmlns:svgjs="http://svgjs.com/svgjs"><defs></defs><path id="svg-like" d="M900.4 35.9C900.3 35.9 900.1 36 900 36C899.9 36 899.7 35.9 899.6 35.8L894 30.299999999999997C894 30.299999999999997 892 28.499999999999996 892 26.299999999999997C892 23.599999999999998 893.6 21.999999999999996 896.3 21.999999999999996C897.9 21.999999999999996 899.3 23.299999999999997 900 23.999999999999996C900.7 23.299999999999997 902.2 21.999999999999996 903.7 21.999999999999996C906.4000000000001 21.999999999999996 908 23.599999999999998 908 26.299999999999997C908 28.499999999999996 906 30.299999999999997 906 30.4ZM900.4 25.2C900.1999999999999 25.5 899.6999999999999 25.5 899.5 25.2C899 24.599999999999998 897.5 23.2 896.2 23.2C894.8000000000001 23.2 893.1 23.7 893.1 26.3C893.1 28 894.8000000000001 29.5 894.8000000000001 29.5L900.0000000000001 34.6L905.2000000000002 29.5C905.2000000000002 29.5 906.9000000000002 27.9 906.9000000000002 26.3C906.9000000000002 23.7 905.2000000000002 23.2 903.7000000000002 23.2C902.4000000000002 23.2 900.9000000000002 24.7 900.4000000000002 25.2Z " fill="#ffffff" fill-opacity="1" transform="matrix(1,0,0,1,-892,-22)"></path></svg>
