<svg id="SvgjsSvg1014" xmlns="http://www.w3.org/2000/svg" version="1.1" xmlns:xlink="http://www.w3.org/1999/xlink" xmlns:svgjs="http://svgjs.com/svgjs" width="15" height="16"><defs id="SvgjsDefs1015"></defs><path id="SvgjsPath1016" d="M1026.8 37C1025.2 37 1024 36 1024 34.3C1024 31.9 1024.6 28.299999999999997 1027.7 28.299999999999997C1028 28.299999999999997 1029.4 29.699999999999996 1031.5 29.699999999999996C1033.6 29.699999999999996 1035 28.299999999999997 1035.3 28.299999999999997C1038.3999999999999 28.299999999999997 1039 31.9 1039 34.3C1039 36 1037.8 37 1036.2 37ZM1031.5 29C1033.8 29 1035.6 27.2 1035.6 25C1035.6 22.8 1033.8 21 1031.5 21C1029.2 21 1027.4 22.8 1027.4 25C1027.4 27.2 1029.2 29 1031.5 29Z " fill="#ffffff" fill-opacity="1" transform="matrix(1,0,0,1,-1024,-21)"></path></svg>