<svg id="SvgjsSvg1000" xmlns="http://www.w3.org/2000/svg" version="1.1" xmlns:xlink="http://www.w3.org/1999/xlink" xmlns:svgjs="http://svgjs.com/svgjs" width="11" height="16"><defs id="SvgjsDefs1001"></defs><path id="SvgjsPath1007" d="M43.7 36.3C43.5 36.699999999999996 43 37 42.5 37C42 37 41.5 36.7 41.3 36.3L37.4 28.199999999999996C37.1 27.599999999999994 37 26.999999999999996 37 26.299999999999997C37 23.4 39.5 20.999999999999996 42.5 20.999999999999996C45.5 20.999999999999996 48 23.399999999999995 48 26.299999999999997C48 26.999999999999996 47.9 27.599999999999998 47.6 28.199999999999996ZM39.8 26.3C39.8 27.7 41 29 42.5 29C44 29 45.3 27.8 45.3 26.3C45.3 24.8 44 23.7 42.5 23.7C41 23.7 39.8 24.9 39.8 26.3Z " fill="#ffffff" fill-opacity="1" transform="matrix(1,0,0,1,-37,-21)"></path></svg>