<svg id="SvgjsSvg1014" xmlns="http://www.w3.org/2000/svg" version="1.1" xmlns:xlink="http://www.w3.org/1999/xlink" xmlns:svgjs="http://svgjs.com/svgjs" width="17" height="16"><defs id="SvgjsDefs1015"></defs><path id="SvgjsPath1016" d="M190.9 27.6L187.6 24.3C186.5 25.1 185.1 25.5 183.79999999999998 25.5C179.99999999999997 25.5 176.99999999999997 22.5 176.99999999999997 18.8C176.99999999999997 15.100000000000001 179.99999999999997 12 183.79999999999998 12C187.6 12 190.6 15 190.6 18.8C190.6 20.2 190.2 21.5 189.4 22.6L192.70000000000002 25.900000000000002C192.9 26.1 193.10000000000002 26.400000000000002 193.10000000000002 26.8C193.00000000000003 27.400000000000002 192.40000000000003 28 191.8 28C191.5 28 191.20000000000002 27.9 190.9 27.6ZM179.5 18.8C179.5 21.2 181.4 23.1 183.8 23.1C186.20000000000002 23.1 188.10000000000002 21.200000000000003 188.10000000000002 18.8C188.10000000000002 16.400000000000002 186.10000000000002 14.5 183.8 14.5C181.4 14.5 179.5 16.4 179.5 18.8Z " fill="#ffffff" fill-opacity="1" transform="matrix(1,0,0,1,-177,-12)"></path></svg>