<svg id="SvgjsSvg1029" xmlns="http://www.w3.org/2000/svg" version="1.1" xmlns:xlink="http://www.w3.org/1999/xlink" xmlns:svgjs="http://svgjs.com/svgjs" width="16" height="13"><defs id="SvgjsDefs1030"></defs><path id="SvgjsPath1031" d="M607.7 1646.4C607 1646.9 606.1 1647.2 605.2 1647.5C605 1647.6 604.7 1647.6 604.4000000000001 1647.6C604.3000000000001 1647.6 604.1000000000001 1647.5 604.1000000000001 1647.3C604.1000000000001 1647.1 604.2000000000002 1647 604.3000000000002 1646.8999999999999C604.6000000000001 1646.4999999999998 605.0000000000002 1646.1 605.3000000000002 1645.3999999999999C603.9000000000002 1644.6 603.0000000000002 1643.1999999999998 603.0000000000002 1641.6999999999998C603.0000000000002 1639.1 605.8000000000002 1636.9999999999998 609.3000000000002 1636.9999999999998C612.8000000000002 1636.9999999999998 615.6000000000001 1639.0999999999997 615.6000000000001 1641.6999999999998C615.6000000000001 1644.2999999999997 612.8000000000002 1646.4999999999998 609.3000000000002 1646.4999999999998C608.8000000000002 1646.4999999999998 608.2000000000002 1646.3999999999999 607.7000000000002 1646.3999999999999ZM616.6 1647.8C618.1 1646.8999999999999 619 1645.6 619 1644.1C619 1642.5 618 1641.1999999999998 616.4 1640.3C616.5 1640.7 616.6 1641.2 616.6 1641.7C616.6 1643.4 615.8000000000001 1644.9 614.3000000000001 1646C612.9000000000001 1647 611.1 1647.6 609.2 1647.6C608.9000000000001 1647.6 608.7 1647.6 608.4000000000001 1647.6C609.5000000000001 1648.3 611.0000000000001 1648.8 612.6000000000001 1648.8C613.2000000000002 1648.8 613.7000000000002 1648.8 614.2000000000002 1648.7C615.0000000000001 1649.3 615.8000000000002 1649.7 616.7000000000002 1649.9C617.0000000000001 1649.9 617.2000000000002 1650 617.5000000000001 1650C617.6000000000001 1650 617.8000000000001 1649.9 617.8000000000001 1649.7C617.8000000000001 1649.5 617.7 1649.4 617.6 1649.3C617.3000000000001 1648.8999999999999 616.9 1648.6 616.6 1647.8Z " fill="#ffffff" fill-opacity="1" transform="matrix(1,0,0,1,-603,-1637)"></path></svg>