<svg id="SvgjsSvg1008" xmlns="http://www.w3.org/2000/svg" version="1.1" xmlns:xlink="http://www.w3.org/1999/xlink" xmlns:svgjs="http://svgjs.com/svgjs" width="15" height="14"><defs id="SvgjsDefs1009"></defs><path id="SvgjsPath1010" d="M482.84 592.16C482.67999999999995 592 482.48999999999995 591.92 482.26 591.92C482.03 591.92 481.83 592 481.67 592.16C481.51 592.3199999999999 481.43 592.52 481.43 592.75C481.43 592.97 481.51 593.17 481.67 593.33C481.83000000000004 593.49 482.03000000000003 593.57 482.26 593.57C482.49 593.57 482.68 593.49 482.84 593.33C483 593.1700000000001 483.08 592.97 483.08 592.75C483.08 592.52 483 592.32 482.84 592.16ZM484.35 593.97C483.92 595.01 483.20000000000005 596.0400000000001 482.18 597.0600000000001C481.72 597.5200000000001 481.16 598.0200000000001 480.51 598.57L480.34 601.82C480.32 601.9100000000001 480.28 601.99 480.2 602.0400000000001L476.90999999999997 603.97C476.86999999999995 603.99 476.82 604 476.77 604C476.7 604 476.64 603.97 476.57 603.92L476.02 603.37C475.95 603.29 475.93 603.2 475.96 603.1L476.68 600.73L474.27 598.32L471.90999999999997 599.0500000000001C471.89 599.0600000000001 471.86999999999995 599.0600000000001 471.83 599.0600000000001C471.75 599.0600000000001 471.69 599.0300000000001 471.63 598.98L471.09 598.4300000000001C470.98999999999995 598.32 470.96999999999997 598.21 471.03999999999996 598.1L472.96 594.8000000000001C473.02 594.72 473.09 594.6800000000001 473.19 594.6700000000001L476.44 594.5000000000001C476.98 593.8400000000001 477.49 593.2900000000001 477.94 592.8200000000002C479.02 591.7500000000001 480.04 591.0200000000002 481.01 590.6100000000001C481.99 590.2000000000002 483.21999999999997 590.0000000000001 484.71 590.0000000000001C484.78999999999996 590.0000000000001 484.85999999999996 590.0300000000001 484.90999999999997 590.0800000000002C484.96999999999997 590.1400000000001 484.99999999999994 590.2000000000002 484.99999999999994 590.2700000000002C484.99999999999994 591.7000000000002 484.7799999999999 592.9300000000002 484.34999999999997 593.9700000000003Z " fill="#333333" fill-opacity="1" transform="matrix(1,0,0,1,-470,-590)"></path></svg>