<svg id="SvgjsSvg1014" xmlns="http://www.w3.org/2000/svg" version="1.1" xmlns:xlink="http://www.w3.org/1999/xlink" xmlns:svgjs="http://svgjs.com/svgjs" width="17" height="16"><defs id="SvgjsDefs1015"></defs><path id="SvgjsPath1016" d="M1134.93 155.6L1131.63 152.29999999999998C1130.5200000000002 153.1 1129.1200000000001 153.49999999999997 1127.8200000000002 153.49999999999997C1124.0100000000002 153.49999999999997 1121.0000000000002 150.49999999999997 1121.0000000000002 146.79999999999998C1121.0000000000002 143.1 1124.0100000000002 139.99999999999997 1127.8200000000002 139.99999999999997C1131.63 139.99999999999997 1134.63 142.99999999999997 1134.63 146.79999999999998C1134.63 148.2 1134.23 149.49999999999997 1133.43 150.6L1136.74 153.9C1136.94 154.1 1137.14 154.4 1137.14 154.8C1137.0400000000002 155.4 1136.44 156 1135.8400000000001 156C1135.5400000000002 156 1135.2400000000002 155.9 1134.93 155.6ZM1123.51 146.8C1123.51 149.20000000000002 1125.41 151.10000000000002 1127.82 151.10000000000002C1130.22 151.10000000000002 1132.1299999999999 149.20000000000002 1132.1299999999999 146.8C1132.1299999999999 144.4 1130.12 142.5 1127.82 142.5C1125.4099999999999 142.5 1123.51 144.4 1123.51 146.8Z " fill="#333333" fill-opacity="1" transform="matrix(1,0,0,1,-1121,-140)"></path></svg>