<svg id="SvgjsSvg1026" xmlns="http://www.w3.org/2000/svg" version="1.1" xmlns:xlink="http://www.w3.org/1999/xlink" xmlns:svgjs="http://svgjs.com/svgjs" width="16" height="14"><defs id="SvgjsDefs1027"></defs><path id="SvgjsPath1028" d="M350.7 1646.9L344.5 1646.9L344.5 1648L347.4 1648C347.59999999999997 1648 347.7 1648.1 347.7 1648.3L347.7 1648.8C347.7 1649 347.59999999999997 1649.1 347.4 1649.1L340.5 1649.1C340.3 1649.1 340.2 1649 340.2 1648.8L340.2 1648.3C340.2 1648.1 340.3 1648 340.5 1648L343.4 1648L343.4 1646.9L337.29999999999995 1646.9C336.59999999999997 1646.8000000000002 335.99999999999994 1646.2 335.99999999999994 1645.5L335.99999999999994 1637.4C335.99999999999994 1636.6000000000001 336.59999999999997 1636 337.29999999999995 1636L350.59999999999997 1636C351.4 1636 351.99999999999994 1636.6 351.99999999999994 1637.4L351.99999999999994 1645.5C351.99999999999994 1646.2 351.3999999999999 1646.9 350.69999999999993 1646.9ZM350.6 1637.1L337.3 1637.1C337.2 1637.1 337 1637.1999999999998 337 1637.3999999999999L337 1645.4999999999998C337 1645.5999999999997 337.1 1645.7999999999997 337.3 1645.7999999999997L350.6 1645.7999999999997C350.70000000000005 1645.7999999999997 350.90000000000003 1645.6999999999998 350.90000000000003 1645.4999999999998L350.90000000000003 1637.3999999999999C350.90000000000003 1637.3 350.8 1637.1 350.6 1637.1Z " fill="#ffffff" fill-opacity="1" transform="matrix(1,0,0,1,-336,-1636)"></path></svg>