<svg id="SvgjsSvg1008" xmlns="http://www.w3.org/2000/svg" version="1.1" xmlns:xlink="http://www.w3.org/1999/xlink" xmlns:svgjs="http://svgjs.com/svgjs" width="10" height="16"><defs id="SvgjsDefs1009"></defs><path id="SvgjsPath1010" d="M235.3 37L228.70000000000002 37C227.8 37 227.00000000000003 36.3 227.00000000000003 35.4L227.00000000000003 22.599999999999998C227.00000000000003 21.7 227.80000000000004 20.999999999999996 228.70000000000002 20.999999999999996L235.4 20.999999999999996C236.20000000000002 20.999999999999996 237 21.699999999999996 237 22.599999999999998L237 35.4C237 36.3 236.2 37 235.3 37ZM235.7 24.6C235.7 24.400000000000002 235.5 24.200000000000003 235.29999999999998 24.200000000000003L228.7 24.200000000000003C228.5 24.200000000000003 228.29999999999998 24.400000000000002 228.29999999999998 24.6L228.29999999999998 33.400000000000006C228.29999999999998 33.60000000000001 228.49999999999997 33.800000000000004 228.7 33.800000000000004L235.39999999999998 33.800000000000004C235.59999999999997 33.800000000000004 235.79999999999998 33.6 235.79999999999998 33.400000000000006L235.79999999999998 24.600000000000005ZM231 22.6C230.9 22.6 230.8 22.700000000000003 230.8 22.8C230.70000000000002 22.900000000000002 230.8 23 231 23L233 23C233.1 23 233.2 22.9 233.2 22.8C233.29999999999998 22.7 233.2 22.6 233 22.6ZM231 35.4C231 36 231.5 36.4 232 36.4C232.5 36.4 233 36 233 35.4C233 34.8 232.6 34.4 232 34.4C231.4 34.4 231 34.8 231 35.4Z " fill="#ffffff" fill-opacity="1" transform="matrix(1,0,0,1,-227,-21)"></path></svg>