<svg id="SvgjsSvg1026" xmlns="http://www.w3.org/2000/svg" version="1.1" xmlns:xlink="http://www.w3.org/1999/xlink" xmlns:svgjs="http://svgjs.com/svgjs" width="12" height="12"><defs id="SvgjsDefs1027"></defs><path id="SvgjsPath1028" d="M426.68 622.87C426.3 622.22 425.78000000000003 621.7 425.13 621.32C424.48 620.94 423.77 620.75 423 620.75C422.23 620.75 421.52 620.94 420.87 621.32C420.22 621.7 419.7 622.22 419.32 622.87C418.94 623.52 418.75 624.23 418.75 625C418.75 625.77 418.94 626.48 419.32 627.13C419.7 627.78 420.21999999999997 628.3 420.87 628.68C421.52 629.06 422.23 629.25 423 629.25C423.77 629.25 424.48 629.06 425.13 628.68C425.78 628.3 426.3 627.78 426.68 627.13C427.06 626.48 427.25 625.77 427.25 625C427.25 624.23 427.06 623.52 426.68 622.87ZM424 625.75C424 625.82 423.98 625.88 423.93 625.93C423.88 625.9799999999999 423.82 626 423.75 626L421.25 626C421.18 626 421.12 625.98 421.07 625.93C421.02 625.88 421 625.8199999999999 421 625.75L421 625.25C421 625.18 421.02 625.12 421.07 625.07C421.12 625.0200000000001 421.18 625 421.25 625L423 625L423 622.25C423 622.18 423.02 622.12 423.07 622.07C423.12 622.0200000000001 423.18 622 423.25 622L423.75 622C423.82 622 423.88 622.02 423.93 622.07C423.98 622.12 424 622.1800000000001 424 622.25ZM428.2 628.01C427.65999999999997 628.93 426.93 629.66 426.01 630.2C425.09 630.73 424.09 631 423 631C421.91 631 420.91 630.73 419.99 630.2C419.07 629.6600000000001 418.34000000000003 628.9300000000001 417.8 628.01C417.27000000000004 627.09 417 626.09 417 625C417 623.91 417.27 622.91 417.8 621.99C418.34000000000003 621.07 419.07 620.34 419.99 619.8C420.91 619.27 421.91 619 423 619C424.09 619 425.09 619.27 426.01 619.8C426.93 620.3399999999999 427.65999999999997 621.0699999999999 428.2 621.99C428.72999999999996 622.91 429 623.91 429 625C429 626.09 428.73 627.09 428.2 628.01Z " fill="#959595" fill-opacity="1" transform="matrix(1,0,0,1,-417,-619)"></path></svg>