<?xml version="1.0" standalone="no"?>
<!DOCTYPE svg PUBLIC "-//W3C//DTD SVG 20010904//EN"
 "http://www.w3.org/TR/2001/REC-SVG-20010904/DTD/svg10.dtd">
<svg version="1.0" xmlns="http://www.w3.org/2000/svg"
 width="700.000000pt" height="700.000000pt" viewBox="0 0 700.000000 700.000000"
 preserveAspectRatio="xMidYMid meet">
<metadata>
Created by potrace 1.11, written by Peter Selinger 2001-2013
</metadata>
<g transform="translate(0.000000,700.000000) scale(0.100000,-0.100000)"
fill="#000000" stroke="none">
<path d="M4818 5465 c-2 -1 -41 -5 -88 -9 -100 -7 -143 -12 -265 -32 -49 -8
-103 -17 -120 -20 -16 -2 -43 -9 -60 -14 -16 -5 -66 -16 -110 -25 -154 -33
-496 -139 -766 -238 l-97 -36 -63 20 c-95 29 -374 93 -454 104 -22 3 -67 10
-100 15 -260 41 -584 45 -798 10 -379 -61 -623 -217 -725 -463 -50 -119 -59
-248 -30 -427 43 -271 159 -516 296 -628 l40 -33 -44 -96 c-61 -131 -109 -279
-140 -431 -50 -244 -33 -561 40 -756 134 -356 392 -625 726 -759 83 -33 211
-71 280 -82 19 -3 42 -8 50 -10 93 -25 519 -25 661 0 13 2 40 6 59 9 19 2 51
7 70 10 19 3 46 8 60 10 14 3 57 12 95 21 39 9 81 19 95 21 201 36 759 231
1044 363 33 16 93 43 131 61 146 67 441 219 609 314 54 31 100 56 102 56 3 0
23 12 45 26 23 14 62 37 87 51 54 30 258 155 285 175 11 7 -120 -55 -290 -139
-689 -340 -1284 -571 -1808 -702 -123 -30 -352 -76 -440 -87 -27 -3 -61 -8
-75 -10 -208 -27 -487 -26 -668 2 -84 13 -233 58 -317 95 -279 122 -478 336
-590 634 -62 164 -77 464 -34 655 6 25 12 52 14 60 16 76 77 244 122 336 19
40 31 54 42 50 77 -25 160 -45 213 -51 72 -8 236 -8 288 0 19 3 55 8 80 11 75
9 209 44 335 86 115 39 259 98 253 104 -2 1 -42 -11 -88 -27 -90 -32 -291 -86
-350 -95 -19 -3 -60 -10 -90 -16 -30 -6 -111 -12 -180 -13 -109 -2 -165 1
-282 19 -32 5 -158 46 -158 51 0 9 80 126 140 205 58 77 280 309 355 371 296
245 662 459 1119 654 l158 68 137 -53 c366 -142 624 -297 834 -503 193 -189
287 -395 273 -597 -3 -47 -9 -96 -12 -110 -4 -14 -4 -23 -1 -20 13 12 35 138
35 202 0 197 -101 409 -281 593 -170 172 -357 300 -649 444 l-196 97 181 62
c220 75 370 121 417 128 19 3 43 10 53 15 9 5 17 8 17 5 0 -2 21 2 48 10 26 8
63 17 82 20 19 3 38 8 41 9 3 2 28 7 55 11 27 3 52 8 55 10 3 1 28 6 55 9 27
4 60 8 74 11 109 19 401 26 515 11 78 -9 189 -40 261 -72 143 -63 242 -188
267 -337 61 -358 -194 -826 -604 -1110 -82 -57 -234 -131 -314 -153 -82 -23
-91 -36 -13 -18 255 57 476 187 684 403 241 250 373 532 376 799 2 115 -12
181 -59 281 -48 100 -155 208 -268 267 -77 40 -216 85 -300 97 -23 4 -52 9
-65 12 -26 5 -356 14 -362 9z m-2358 -319 c104 -6 157 -11 215 -21 17 -2 48
-7 70 -10 97 -14 168 -28 275 -52 63 -15 118 -26 123 -25 4 1 7 -1 7 -6 0 -4
-46 -28 -102 -52 -156 -68 -394 -192 -541 -281 -117 -72 -313 -205 -343 -234
-6 -5 -28 -23 -50 -40 -216 -169 -416 -385 -553 -597 -24 -37 -48 -65 -53 -62
-20 13 -81 85 -111 132 -119 186 -192 512 -163 727 10 78 64 189 121 253 109
121 336 223 555 248 30 3 58 8 61 10 3 2 57 6 120 10 63 3 115 7 116 8 3 2
137 -2 253 -8z"/>
</g>
</svg>
